<svg xmlns="http://www.w3.org/2000/svg" width="40" height="40" fill="none" viewBox="0 0 40 40"><path fill="#fff" d="M8.75 19.355c0-.342.132-.67.366-.913a1.23 1.23 0 0 1 .884-.378h16.988L25.363 16.4a1.32 1.32 0 0 1-.368-.916c0-.344.132-.673.367-.916.236-.243.555-.38.888-.38s.652.137.887.38l3.75 3.87a1.328 1.328 0 0 1-.195 1.986 1.2 1.2 0 0 1-.692.221H10a1.23 1.23 0 0 1-.884-.378 1.3 1.3 0 0 1-.366-.912"/><path fill="#fff" d="M25 23.226a1.33 1.33 0 0 1 .363-.916l3.75-3.871a1.22 1.22 0 0 1 1.775 0 1.33 1.33 0 0 1 0 1.832l-3.75 3.87a1.216 1.216 0 0 1-1.775 0 1.33 1.33 0 0 1-.363-.916"/></svg>