<svg xmlns="http://www.w3.org/2000/svg" width="232" height="30" fill="none" viewBox="0 0 232 30"><path fill="#db2a6b" d="M12.664 29.982q-3.969 0-6.855-1.732-2.85-1.768-4.33-4.835Q0 20.35 0 16.488q0-4.437 1.696-7.613 1.731-3.174 4.87-4.798 3.14-1.623 7.324-1.624 3.933 0 8.84 1.119l-.397 6.71h-3.644l-.974-4.618q-.36-.36-1.371-.649-1.011-.325-2.634-.325-3.536 0-5.556 2.887-2.02 2.85-2.02 8.262 0 5.303 1.731 8.586 1.732 3.247 5.268 3.247 1.443 0 2.706-.36 1.262-.361 1.912-.938v-7.757l-3.825-.361v-2.417h10.968v2.417l-1.912.325v9.56q-.758.037-2.742.614-2.31.614-3.968.902-1.624.325-3.608.325m14.148-6.026q0-3.283 3.283-4.942 3.32-1.66 8.55-1.696v-.83q0-1.48-.324-2.309-.29-.83-1.119-1.227-.793-.433-2.345-.433-1.768 0-3.175.47a21.6 21.6 0 0 0-2.922 1.154l-1.119-2.31q.542-.468 1.804-1.118 1.3-.648 3.067-1.118a13.2 13.2 0 0 1 3.644-.505q2.778 0 4.33.721 1.587.721 2.272 2.31.686 1.587.686 4.257v11.04h1.948v2.02q-.72.18-2.056.361-1.335.18-2.346.18-1.225 0-1.66-.36-.396-.36-.396-1.48v-.974q-.974 1.082-2.526 1.949-1.55.866-3.5.866-1.659 0-3.066-.686a5.65 5.65 0 0 1-2.2-2.056q-.83-1.371-.83-3.284m8.406 3.03q.757 0 1.732-.432a7.2 7.2 0 0 0 1.695-1.118v-5.917q-3.247 0-4.87 1.118-1.588 1.083-1.588 2.814 0 1.733.794 2.634.83.902 2.237.902m18.487 2.923q-2.273 0-3.355-1.046-1.083-1.046-1.083-3.32v-13.24h-2.345v-1.876q.289-.108 1.046-.361.758-.289 1.155-.469.614-.47 1.046-1.624.326-.757 1.19-3.752h2.887l.144 5.304h5.52v2.778h-5.483V22.44q0 2.02.108 2.85t.469 1.083q.36.216 1.263.216.9 0 1.876-.18.973-.217 1.623-.505l.686 2.02q-1.01.757-2.959 1.371-1.948.613-3.788.613M64.067 3.211l-2.742-.469V.794L68.035 0h.109l.938.686.036 8.045-.253 3.139q1.119-1.01 3.031-1.876a9.9 9.9 0 0 1 4.077-.866q2.273 0 3.536.866 1.261.83 1.767 2.561.505 1.732.505 4.619v9.921l2.31.325v2.165H74.6V27.42l2.093-.325v-9.921q0-1.876-.252-2.923-.252-1.045-.938-1.551-.65-.505-1.948-.505-1.119 0-2.31.54a9 9 0 0 0-2.056 1.228v13.132l2.2.325v2.165h-9.343V27.42l2.02-.289zM228.68 29.909a2.8 2.8 0 0 1-1.948-.757q-.83-.794-.83-1.985 0-1.335.938-2.164.974-.866 2.345-.866 1.299 0 2.056.83a2.67 2.67 0 0 1 .758 1.912q0 1.406-.938 2.237-.902.793-2.381.793"/><path fill="#fff" d="M95.633 29.982q-1.948 0-3.5-.325a52 52 0 0 1-3.463-.866q-1.263-.36-1.696-.397l.325-6.675h2.922l.794 4.655q.47.504 1.66.902 1.225.396 2.778.396 2.417 0 3.608-1.046 1.226-1.082 1.226-2.994 0-1.263-.721-2.165-.722-.938-1.985-1.66-1.263-.758-3.463-1.731-2.995-1.372-4.98-3.248-1.948-1.911-1.948-5.159 0-2.02 1.047-3.644 1.046-1.66 3.103-2.597 2.092-.975 5.087-.975 1.767 0 3.102.253 1.372.252 2.959.685a14 14 0 0 0 1.407.325l-.216 6.314h-2.887l-.757-4.438q-.325-.324-1.3-.613-.973-.325-2.164-.325-2.164 0-3.283 1.01-1.082.975-1.082 2.634 0 1.335.793 2.31a7.8 7.8 0 0 0 1.985 1.659q1.154.65 3.644 1.876 2.02.975 3.463 1.912 1.443.938 2.49 2.453 1.046 1.48 1.046 3.5 0 1.985-1.01 3.788-.975 1.804-3.247 2.995-2.238 1.19-5.737 1.19m21.739 0q-4.762 0-7.108-2.779-2.309-2.814-2.309-7.648 0-3.247 1.191-5.629 1.227-2.381 3.427-3.643t5.087-1.263q3.609 0 5.557 1.912 1.948 1.876 2.02 5.376 0 2.381-.289 3.535h-11.725q.144 3.284 1.551 5.124 1.407 1.803 4.005 1.803 1.407 0 2.886-.469 1.515-.468 2.381-1.118l.902 1.984q-.973 1.046-3.175 1.949-2.165.866-4.401.866m2.814-12.303q.072-1.01.072-1.552 0-4.798-3.211-4.798-1.767 0-2.742 1.407-.974 1.406-1.082 4.943zm11.935 8.947q.288.433 1.299.83 1.046.36 2.092.36 1.697 0 2.526-.685.866-.72.866-1.876 0-1.19-1.046-1.912-1.047-.758-3.536-1.84l-1.01-.433q-2.49-1.047-3.716-2.526-1.227-1.478-1.227-3.824a4.6 4.6 0 0 1 .974-2.886q.974-1.3 2.742-2.02 1.768-.722 4.077-.722 1.695 0 2.886.216 1.227.217 2.562.578.722.252 1.082.288V14.9h-2.85l-.83-2.742q-.216-.361-.974-.65-.757-.288-1.732-.289-1.48 0-2.381.65-.866.613-.866 1.732 0 1.01.613 1.695.613.65 1.335 1.01.721.362 2.67 1.191t3.211 1.588a6.5 6.5 0 0 1 2.129 1.984q.866 1.191.866 2.922 0 2.67-2.093 4.33t-6.025 1.66q-1.84 0-3.319-.325a65 65 0 0 1-3.356-.866l-.793-.253v-4.762h2.994zm18.709 0q.288.433 1.299.83 1.046.36 2.092.36 1.697 0 2.526-.685.866-.72.866-1.876 0-1.19-1.047-1.912-1.046-.758-3.535-1.84l-1.011-.433q-2.489-1.047-3.716-2.526-1.226-1.478-1.226-3.824 0-1.623.974-2.886.973-1.3 2.742-2.02 1.767-.722 4.077-.722 1.695 0 2.886.216 1.227.217 2.562.578.721.252 1.082.288V14.9h-2.85l-.83-2.742q-.216-.361-.974-.65-.758-.288-1.732-.289-1.48 0-2.381.65-.866.613-.866 1.732 0 1.01.613 1.695.614.65 1.335 1.01.722.362 2.67 1.191t3.211 1.588a6.5 6.5 0 0 1 2.129 1.984q.866 1.191.866 2.922 0 2.67-2.093 4.33t-6.025 1.66q-1.84 0-3.319-.325a65 65 0 0 1-3.356-.866l-.794-.253v-4.762H150zm18.997-20.384q-1.299 0-2.056-.758t-.758-1.948q0-1.371.866-2.273t2.309-.902 2.201.794q.758.757.758 1.912 0 1.443-.866 2.309t-2.418.866zm-1.912 6.71-2.561-.685V9.85l6.602-.794h.072l1.01.721v17.354l2.418.289v2.165H165.39V27.42l2.525-.325zm10.127 6.639q0-3.391 1.335-5.773 1.37-2.38 3.644-3.572 2.272-1.226 4.942-1.226 4.546 0 7 2.814 2.489 2.778 2.489 7.576 0 3.428-1.371 5.845-1.335 2.381-3.608 3.572-2.237 1.155-4.943 1.154-4.509 0-6.999-2.778-2.49-2.814-2.489-7.612m9.777 8.045q4.077 0 4.077-7.865 0-4.113-.974-6.241-.975-2.165-3.175-2.165-4.185 0-4.185 7.865 0 4.113 1.01 6.278 1.046 2.128 3.247 2.128m14.933-14.684-2.309-.65V9.814l5.989-.757h.109l.901.721v1.407l-.036.866q1.263-1.19 3.284-2.056t4.076-.866q2.202 0 3.428.83 1.263.793 1.804 2.525t.541 4.69v9.958l2.201.289v2.165h-9.308V27.42l1.948-.289v-9.957q0-1.876-.253-2.923-.252-1.082-.938-1.551-.65-.505-1.876-.505-2.057 0-4.401 1.768v13.132l2.164.325v2.165h-9.416V27.42l2.092-.325z"/></svg>