<svg xmlns="http://www.w3.org/2000/svg" width="64" height="64" fill="none" viewBox="0 0 64 64"><rect width="64" height="64" fill="#fff" fill-opacity=".25" opacity=".5" rx="16"/><g clip-path="url(#a)"><path fill="#fff" fill-rule="evenodd" d="M48.25 22A6.25 6.25 0 0 0 42 15.75H22A6.25 6.25 0 0 0 15.75 22v10c0 .69.56 1.25 1.25 1.25h30c.69 0 1.25-.56 1.25-1.25zm-2.5 8.75V22A3.75 3.75 0 0 0 42 18.25H22A3.75 3.75 0 0 0 18.25 22v8.75z" clip-rule="evenodd"/><path fill="#fff" fill-rule="evenodd" d="M18.25 33.25V42A3.75 3.75 0 0 0 22 45.75h20A3.75 3.75 0 0 0 45.75 42a1.25 1.25 0 0 1 2.5 0A6.25 6.25 0 0 1 42 48.25H22A6.25 6.25 0 0 1 15.75 42V32c0-.69.56-1.25 1.25-1.25h30c.69 0 1.25.56 1.25 1.25v5a1.25 1.25 0 0 1-2.5 0v-3.75z" clip-rule="evenodd"/><path fill="#db2a6b" d="M27 22h-5v5h5z"/><path fill="#fff" fill-rule="evenodd" d="M28.25 22c0-.69-.56-1.25-1.25-1.25h-5c-.69 0-1.25.56-1.25 1.25v5c0 .69.56 1.25 1.25 1.25h5c.69 0 1.25-.56 1.25-1.25zm-5 1.25v2.5h2.5v-2.5zm8.75 0h10a1.25 1.25 0 0 0 0-2.5H32a1.25 1.25 0 0 0 0 2.5m0 5h10a1.25 1.25 0 0 0 0-2.5H32a1.25 1.25 0 0 0 0 2.5" clip-rule="evenodd"/><path fill="#db2a6b" fill-rule="evenodd" d="M45.536 45.536A5 5 0 0 1 42 47H32l-3.75-3.75 7.5-7.5zM32 47H22a5 5 0 0 1-3.536-1.464L24.5 39.5z" clip-rule="evenodd"/><path fill="#fff" fill-rule="evenodd" d="m28.25 41.483 6.616-6.617a1.25 1.25 0 0 1 1.768 0l9.785 9.786a1.25 1.25 0 0 1 .003 1.765l-.003.002A6.25 6.25 0 0 1 42 48.25H22a6.25 6.25 0 0 1-4.42-1.83l-.002-.003a1.25 1.25 0 0 1 .003-1.765l6.035-6.036a1.25 1.25 0 0 1 1.768 0zm15.366 3.9-7.866-7.866-5.733 5.733 2.5 2.5H42c.565 0 1.117-.127 1.616-.366m-14.633.367L24.5 41.267l-4.116 4.117c.5.239 1.052.366 1.616.366z" clip-rule="evenodd"/></g><defs><clipPath id="a"><path fill="#fff" d="M12 12h40v40H12z"/></clipPath></defs></svg>