<svg xmlns="http://www.w3.org/2000/svg" width="64" height="64" fill="none" viewBox="0 0 64 64"><rect width="64" height="64" fill="#fff" fill-opacity=".25" opacity=".5" rx="16"/><g fill-rule="evenodd" clip-path="url(#a)" clip-rule="evenodd"><path fill="#fff" d="M48.25 30.75v-7.5A6.25 6.25 0 0 0 42 17H22a6.25 6.25 0 0 0-6.25 6.25v20A6.25 6.25 0 0 0 22 49.5h20a6.25 6.25 0 0 0 6.25-6.25v-7.5a1.25 1.25 0 0 0-2.5 0v7.5A3.75 3.75 0 0 1 42 47H22a3.75 3.75 0 0 1-3.75-3.75v-20A3.75 3.75 0 0 1 22 19.5h20a3.75 3.75 0 0 1 3.75 3.75v7.5a1.25 1.25 0 0 0 2.5 0"/><path fill="#db2a6b" d="M47 23.25a5 5 0 0 0-5-5H22a5 5 0 0 0-5 5v5h30z"/><path fill="#fff" d="M48.25 23.25A6.25 6.25 0 0 0 42 17H22a6.25 6.25 0 0 0-6.25 6.25v5c0 .69.56 1.25 1.25 1.25h30c.69 0 1.25-.56 1.25-1.25zM45.75 27v-3.75A3.75 3.75 0 0 0 42 19.5H22a3.75 3.75 0 0 0-3.75 3.75V27z"/><path fill="#fff" d="M24.5 24.5h15.001a1.25 1.25 0 0 0 0-2.5h-15a1.25 1.25 0 0 0 0 2.5m1.249 3.75v20a1.25 1.25 0 0 0 2.5 0v-20a1.25 1.25 0 0 0-2.5 0m10 0v20a1.25 1.25 0 0 0 2.5 0v-20a1.25 1.25 0 0 0-2.5 0"/><path fill="#fff" d="M47 37H17a1.25 1.25 0 0 0 0 2.5h30a1.25 1.25 0 0 0 0-2.5M25.75 19.5v-3.75a1.25 1.25 0 0 0-2.5 0v3.75a1.25 1.25 0 0 0 2.5 0m15 0v-3.75a1.25 1.25 0 0 0-2.5 0v3.75a1.25 1.25 0 0 0 2.5 0"/></g><defs><clipPath id="a"><path fill="#fff" d="M12 12h40v40H12z"/></clipPath></defs></svg>