<svg xmlns="http://www.w3.org/2000/svg" width="64" height="64" fill="none" viewBox="0 0 64 64"><rect width="64" height="64" fill="#fff" fill-opacity=".25" opacity=".5" rx="16"/><g fill-rule="evenodd" clip-path="url(#a)" clip-rule="evenodd"><path fill="#fff" d="M43.487 35.707a11.2 11.2 0 0 1-5.236 1.292C32.04 37 27 31.96 27 25.75c0-6.208 5.04-11.25 11.25-11.25 5.733 0 10.47 4.299 11.163 9.846a1.25 1.25 0 0 1-2.48.31C46.393 20.34 42.71 17 38.25 17c-4.83 0-8.75 3.92-8.75 8.75 0 4.829 3.92 8.75 8.75 8.75a8.7 8.7 0 0 0 4.374-1.172c.129-.074.469-.229 1-.155.481.066 1.665.392 2.76.71-.319-1.094-.644-2.278-.71-2.76-.074-.53.08-.87.154-1q.305-.525.535-1.093a1.25 1.25 0 0 1 2.317.94q-.211.52-.473 1.016l1.236 4.389a1.25 1.25 0 0 1-1.568 1.567z"/><path fill="#fff" d="M34.5 24.5H42a1.25 1.25 0 0 0 0-2.5h-7.5a1.25 1.25 0 0 0 0 2.5m0 5H42a1.25 1.25 0 0 0 0-2.5h-7.5a1.25 1.25 0 0 0 0 2.5m-18.793 8.044a10.6 10.6 0 0 1-1.207-4.919C14.5 26.761 19.26 22 25.125 22a10.6 10.6 0 0 1 3.747.68c.57.216.901.81.786 1.407a8.76 8.76 0 0 0 5.067 9.673c.557.246.856.857.708 1.447-1.155 4.618-5.335 8.043-10.308 8.043-1.774 0-3.448-.436-4.919-1.207l-4.082 1.15a1.25 1.25 0 0 1-1.566-1.567zm11.34-12.815a8.129 8.129 0 0 0-8.959 11.957c.073.127.228.464.155.988-.06.433-.343 1.472-.63 2.463.991-.287 2.03-.57 2.463-.63.524-.073.86.082.988.156a8.132 8.132 0 0 0 11.646-4.121 11.25 11.25 0 0 1-5.664-10.813"/><path fill="#db2a6b" d="M34.216 34.901a9.95 9.95 0 0 0 4.034.849c1.82 0 3.529-.487 5-1.34.069-.04.455.037.985.17a8.7 8.7 0 0 1 1.515 4.92 8.7 8.7 0 0 1-1.172 4.375c-.131.226 1.172 4.375 1.172 4.375s-4.15-1.303-4.375-1.172A8.7 8.7 0 0 1 37 48.25c-4.18 0-7.68-2.937-8.545-6.86a9.4 9.4 0 0 0 5.766-6.486z"/><path fill="#fff" d="M32.98 34.706q.026-.158.093-.312a1.25 1.25 0 0 1 1.648-.636 8.7 8.7 0 0 0 3.529.742 8.7 8.7 0 0 0 4.374-1.171c.132-.077.37-.187.732-.178.197.004.633.078 1.184.217.297.075.556.256.728.508A9.95 9.95 0 0 1 47 39.5a9.96 9.96 0 0 1-1.12 4.601l1.063 3.775a1.25 1.25 0 0 1-1.567 1.567L41.6 48.379A9.96 9.96 0 0 1 37 49.5c-4.778 0-8.777-3.358-9.766-7.84a1.25 1.25 0 0 1 .777-1.438 8.15 8.15 0 0 0 4.97-5.516m10.494 1.008A11.2 11.2 0 0 1 38.25 37a11.2 11.2 0 0 1-3.24-.475 10.67 10.67 0 0 1-5.051 5.562 7.507 7.507 0 0 0 10.79 3.91c.125-.074.457-.228.975-.156.385.053 1.281.295 2.165.548-.253-.884-.495-1.78-.548-2.165-.072-.518.082-.85.155-.975A7.46 7.46 0 0 0 44.5 39.5a7.46 7.46 0 0 0-1.026-3.786"/></g><defs><clipPath id="a"><path fill="#fff" d="M12 12h40v40H12z"/></clipPath></defs></svg>